PathFileType	4	(X/Y/Z)	5_coords_data.trc
DataRate	CameraRate	NumFrames	NumMarkers	Units	OrigDataRate	OrigDataStartFrame	OrigNumFrames
30.0	30.0	9	21	m	30.0	29	57
Frame#	Time	THUMB_TIP	THUMB_IP	THUMB_MCP	THUMB_CMC	INDEX_TIP	INDEX_DIP	INDEX_PIP	INDEX_MCP	MIDDLE_TIP	MIDDLE_DIP	MIDDLE_PIP	MIDDLE_MCP	RING_TIP	RING_DIP	RING_PIP	RING_MCP	PINKY_TIP	PINKY_DIP	PINKY_PIP	PINKY_MCP	WRIST
X1	Y1	Z1	X2	Y2	Z2	X3	Y3	Z3	X4	Y4	Z4	X5	Y5	Z5	X6	Y6	Z6	X7	Y7	Z7	X8	Y8	Z8	X9	Y9	Z9	X10	Y10	Z10	X11	Y11	Z11	X12	Y12	Z12	X13	Y13	Z13	X14	Y14	Z14	X15	Y15	Z15	X16	Y16	Z16	X17	Y17	Z17	X18	Y18	Z18	X19	Y19	Z19	X20	Y20	Z20	X21	Y21	Z21
27	0.9333333333333294	0.4610631015106721	-0.04634625053761843	-0.171638858315547	0.4695022532976826	-0.04186488514380571	-0.15074153596738632	0.46297510974343614	-0.029613494540979057	-0.12288260875689902	0.4705704345075392	-0.027995374269719653	-0.07895559282688687	0.5685331325018023	0.02442125914734372	-0.1754219364506378	0.5552702369558883	0.021381645324725418	-0.16346968354386224	0.5372348120416424	0.017150107386492253	-0.14647476171880255	0.5103702966724002	0.003906320267751728	-0.11620041596651197	0.5989321979161879	0.04279045926817904	-0.13273593075930162	0.582754440050504	0.0367290566578079	-0.12730090096782049	0.5570765495459503	0.027480905867744432	-0.11707704669458283	0.5207446989870834	0.008547301938648943	-0.09925393814909332	0.6026711433868076	0.042644980873844274	-0.10026594731920824	0.5877425122389504	0.033244844881767155	-0.09655469208927758	0.5659911698929301	0.02245588627517503	-0.0910177744150236	0.5311198147083962	0.0036041831037630923	-0.08306021768377332	0.6018912036001255	0.01899457129628712	-0.05737613989973825	0.5862136448465077	0.012483773441089085	-0.05957242376472721	0.5664897397631509	0.005776284484102501	-0.06217802909835535	0.5327037697970787	-0.0060811441229684515	-0.06651312670739376	0.4622830810018608	-0.023011742144276925	-0.051989820119430985
28	0.9666666666666625	0.46108700916150147	-0.04628157458474391	-0.17165346765882908	0.4694801090218369	-0.041805253679716325	-0.15073652653710556	0.4629368070942016	-0.029559213092112846	-0.12287903760126331	0.4705702919273749	-0.027988434374538906	-0.07895691830446555	0.568520150328115	0.024360504963283902	-0.17545057556435348	0.5552542296152675	0.021337591466841332	-0.16349744452543863	0.5372224726063621	0.017120902269428417	-0.146494941639563	0.510342781191666	0.0039235361531028135	-0.11621379550797846	0.5989712501811905	0.042564436290585594	-0.13286051125568243	0.5827837785552085	0.03654908022263126	-0.12740329092535374	0.5570959273100674	0.027369845924442804	-0.1171424183451845	0.5207238515299544	0.008557777273661249	-0.09927272059944749	0.6029288076956582	0.04218253139891748	-0.10015905146975923	0.5879566108788377	0.03283403907806792	-0.09649312541957657	0.5661403597174962	0.022154836661511523	-0.09099896488210751	0.5311257309981795	0.0035474845936429578	-0.0830956074518252	0.6019369126138302	0.018817926256017303	-0.057448822398476124	0.5862546593883323	0.012318627124806358	-0.059645648421265074	0.5665208899656426	0.005638095581182001	-0.06224581412113106	0.5327120506948255	-0.006159968036826724	-0.06656455618630239	0.462283081001861	-0.023011742144276925	-0.051989820119430985
29	0.9999999999999956	0.4610980258744093	-0.046217801074713294	-0.17167289775688824	0.46944676383480943	-0.0417540454180344	-0.15073552781923744	0.46288914383191815	-0.029506914198827117	-0.12288188538602604	0.4705539488316587	-0.027978769652606816	-0.0789637167247327	0.5684953316799657	0.024280639981306806	-0.17549665584687088	0.5552264538645816	0.021282430555063292	-0.16354058534871851	0.5372034888723474	0.017087157167467115	-0.14652346905094257	0.5103194426386193	0.003940376723218564	-0.11622418991672051	0.5990202066904868	0.04232347611838727	-0.13298734004097157	0.5828242305209302	0.03635136870367639	-0.12750789764759754	0.5571276470993396	0.027241253753701566	-0.11720736581397423	0.5207111411547141	0.008570792677663364	-0.09927973632780994	0.6032098206307106	0.04168539786954262	-0.10000941253608372	0.5881959203065548	0.03238092974170714	-0.0964025205340398	0.5663148015364223	0.021806070596943727	-0.09096478438415465	0.531136626025018	0.0034811676498717192	-0.0831280290817841	0.6019890213096885	0.018609699839152283	-0.05749555178953955	0.5863048508840749	0.012118326131083212	-0.059702102365097764	0.5665623968642116	0.005465798661892118	-0.06230813508654273	0.5327245860680081	-0.006254190439766938	-0.06661253597137295	0.4622830810018608	-0.023011742144276925	-0.051989820119430985
30	1.0333333333333288	0.46088203655557336	-0.04620210873168451	-0.17167064523222822	0.4692646739486721	-0.041737205518774356	-0.15074706930374104	0.4628049985866821	-0.029464069212853827	-0.12288198865727612	0.4705290783329713	-0.027969396175973937	-0.0789730539789468	0.5683563946594077	0.024163674334236718	-0.17566954113677866	0.5551132307792399	0.021185898145933413	-0.16367990146682215	0.5371273992097806	0.01701140712014615	-0.1466184443065834	0.5102821883829615	0.00394041683088997	-0.1162520160918294	0.5990336946447165	0.04206297733074904	-0.1331985309531361	0.5828377203919568	0.036123524428959386	-0.12768370391764602	0.5571408506562395	0.027076735548062225	-0.11732822002117602	0.5206875786508345	0.008560108570554337	-0.09931596290343006	0.6034574677761603	0.04119377158432791	-0.09990276444462615	0.5884179142903381	0.03190716439183694	-0.09635723799577985	0.5664899490333559	0.02140040603432214	-0.09097649943073308	0.5311540002918269	0.0033581231918811127	-0.0831939811770192	0.6020439545988553	0.018337077739984387	-0.057573075278736896	0.5863611504524078	0.0118492192188282	-0.059799585084156615	0.5666093302748646	0.005230007873138098	-0.06241944382750278	0.5327414121639605	-0.006408741539766005	-0.06670746037792838	0.462283081001861	-0.023011742144276925	-0.051989820119430985
31	1.0666666666666622	0.46035124306591435	-0.04613727593810768	-0.1716671510147027	0.46887067753057754	-0.04168088828982941	-0.15079708044628864	0.4626736742647213	-0.029395518112208197	-0.12287778908490588	0.47049788507080403	-0.027957868425335652	-0.07898468155490962	0.568025823587378	0.024199741096146865	-0.17598600079890514	0.5548454574058688	0.02117138779553107	-0.16393996312637654	0.5369531528110398	0.016951282716401783	-0.14679161094877738	0.5102400225893483	0.003907190271511429	-0.11629740789232568	0.5989324080635587	0.04192892806284665	-0.1335240912659869	0.5827549908906624	0.035984803172501856	-0.12796005020736229	0.5570870434009234	0.026945943613074452	-0.1175262091347295	0.5206499129990505	0.00851891310912889	-0.09938983695384489	0.6035072233573527	0.04098798336806986	-0.09992522356221634	0.5884953579125484	0.031639261234391425	-0.09642589643627315	0.5665772433374591	0.021094997361579715	-0.09107849221985369	0.5311630216233083	0.003203157104855303	-0.08330444651579294	0.6020168781631005	0.01826187839435567	-0.057696799089595935	0.5863592591318674	0.011720571384484457	-0.05994407941821031	0.5666204610065053	0.005070225048458443	-0.06258316281535944	0.5327531242431495	-0.006580406749239431	-0.06684341283993828	0.4622830810018608	-0.023011742144276925	-0.051989820119430985
32	1.0999999999999952	0.46016742053633575	-0.04618853559462188	-0.17165479079692844	0.46873902243057897	-0.04171868822574287	-0.1508089733395695	0.46267965822910384	-0.029406172728564828	-0.12287143465761623	0.4705087033052291	-0.027970135154206988	-0.07897913636644638	0.5678567571333208	0.024300549785237435	-0.17614893912738863	0.554722076247429	0.021182400597514195	-0.16407594017646965	0.5369010193745143	0.016868445140618915	-0.1468768252792354	0.5102807362009979	0.003812131851510636	-0.11630675329602833	0.5989126519087428	0.041824184596641834	-0.1336759559500971	0.5827492731985598	0.035859207295457995	-0.12809346237933755	0.557100712638135	0.026797184328093637	-0.11763207476023194	0.5206637413011412	0.008438463271561725	-0.09942624047680629	0.6034883513729521	0.04099512960594964	-0.09982416312761394	0.588529752375914	0.03153856180894077	-0.09638706528984636	0.5666508862555376	0.020885480176793703	-0.09109489673381342	0.5311940655055742	0.0030648051325606884	-0.08335162628310483	0.6019052631006163	0.018436671332034305	-0.057629013790570977	0.5863005949547366	0.011789168151409957	-0.059932279628583746	0.5666023133354636	0.0050396578087572586	-0.06262185773346124	0.5327725879052256	-0.006713941064944495	-0.06689807590268843	0.462283081001861	-0.023011742144276925	-0.051989820119430985
33	1.1333333333333284	0.460503768109393	-0.04635913805387015	-0.1716388961292084	0.46900091730277704	-0.04185372528133713	-0.15077026629075302	0.46283600327043317	-0.02950588227168327	-0.12287143821531672	0.47054559775689797	-0.028013355836649656	-0.07895988486434768	0.5679994770100738	0.0242920939942054	-0.17606655972024077	0.5548573019765182	0.021104946165282468	-0.16401976246520322	0.5370414130658121	0.016702805246236352	-0.14683764703519178	0.5103932182992841	0.0036732231418279415	-0.11628049075602066	0.5990777029745419	0.0416415111499876	-0.13354183829407695	0.5829071164729948	0.03566197546202121	-0.12799591319971065	0.5572385378381343	0.026602437600105944	-0.11758157718657401	0.5207519021382518	0.008327025986316183	-0.09939139668580324	0.6035662568988434	0.0409436451674301	-0.09956846528173655	0.5886300264780817	0.031427788301179316	-0.09619837790617188	0.5667606950610997	0.020718832061462966	-0.0909800852131494	0.5312457062888245	0.002984981040020984	-0.08330434847623125	0.6018195494751402	0.018618264096959103	-0.05738459716616229	0.5862557987575223	0.011894602864931936	-0.05974299561358057	0.566595495103647	0.0050590889374976244	-0.06249258259806942	0.5327977402264633	-0.006762946784022339	-0.06683247748860713	0.462283081001861	-0.023011742144276925	-0.051989820119430985
34	1.1666666666666616	0.46126398740931374	-0.04644081141340106	-0.1716850317037949	0.46952354001819263	-0.04191349612553241	-0.15072594758770358	0.4630250505504061	-0.02959777096530125	-0.12288869649470377	0.47055646781009575	-0.02806043669992364	-0.07894777755327803	0.5684265354828046	0.024358405804948857	-0.1756539115956067	0.5552107301666044	0.021153228609943397	-0.16369275241294778	0.5372981844012882	0.016702174260432523	-0.14662410711277357	0.510484672710266	0.0036502652746546183	-0.11622148622867229	0.5993430805905863	0.041483461572365155	-0.13317080961623415	0.5831414070855145	0.03552288795361225	-0.12769565320107218	0.5574182767431729	0.026508514721640175	-0.1173771653939556	0.5208312511531191	0.008331326947557116	-0.09929050389719309	0.6037615159647519	0.04076801450501266	-0.09932672666395462	0.5887776199781826	0.0313209388299327	-0.09597476869092103	0.5668605871164258	0.020695810473595477	-0.09078532778191738	0.531279404449714	0.0030757171256147187	-0.08315430003681426	0.6018543327149317	0.01865744312491857	-0.05716591672620688	0.586282548094381	0.011952312837473111	-0.059524041311456916	0.5666207790439372	0.005123334622254783	-0.06227938400213706	0.5328098923459954	-0.006649932589095409	-0.06664946075993974	0.4622830810018609	-0.023011742144276925	-0.051989820119430985
35	1.1999999999999948	0.46246820621374585	-0.04631488285503105	-0.17179591647962242	0.47029759255513226	-0.04181535601281228	-0.15066643547053313	0.4631910613504331	-0.029612368948587653	-0.12292829708766755	0.47052612487846235	-0.02807607769094833	-0.07895413817346572	0.5691424561496723	0.024609968176653063	-0.17482340189621015	0.5557621006837854	0.02145828504803915	-0.163032177147978	0.5376321323588299	0.017017325236107994	-0.1461919883876071	0.5104863479787926	0.003802632288698593	-0.11615676948215868	0.5995571832632512	0.041545250353345775	-0.1326673981635708	0.5833138472913492	0.03562726904143054	-0.12727003457606517	0.5575146808095202	0.026696352450570338	-0.11706948127293627	0.5208492612878773	0.008516663741662267	-0.09914480970693174	0.6041386651108394	0.04027420278260907	-0.0992765831780382	0.5889889324250042	0.031125804539950952	-0.09584257544050018	0.5669129915886311	0.02087161506495816	-0.09058097745130478	0.5312278703884514	0.003469248587413265	-0.08293567824789136	0.6020516076991194	0.018542633054919766	-0.05720734552911019	0.5863960002864272	0.011998149047687812	-0.0594593858526265	0.5666597375257988	0.005341722502666069	-0.06210209977852926	0.5327750297454635	-0.006255762751210758	-0.0663692259106467	0.4622830810018609	-0.023011742144276925	-0.051989820119430985
